<?xml version="1.0" standalone="no"?>
<!DOCTYPE svg PUBLIC "-//W3C//DTD SVG 20010904//EN"
 "http://www.w3.org/TR/2001/REC-SVG-20010904/DTD/svg10.dtd">
<svg version="1.0" xmlns="http://www.w3.org/2000/svg"
 width="1654.000000pt" height="1768.000000pt" viewBox="0 0 1654.000000 1768.000000"
 preserveAspectRatio="xMidYMid meet">

<g transform="translate(0.000000,1768.000000) scale(0.100000,-0.100000)"
fill="#000000" stroke="none">
<path d="M7338 14859 c3 -30 1 -40 -9 -39 -8 2 -89 2 -181 1 l-168 -1 0 -35 0
-35 -105 0 c-86 0 -105 -3 -106 -15 -1 -8 -3 -19 -4 -25 -1 -5 -3 -14 -4 -20
0 -6 -42 -10 -101 -10 -97 0 -100 -1 -101 -22 0 -22 -1 -22 -9 -3 -8 19 -9 19
-9 -2 -1 -13 4 -23 11 -23 6 0 8 -3 5 -6 -8 -8 -34 -10 -140 -12 l-79 -2 4
-32 c3 -32 1 -33 -37 -38 -22 -3 -41 -11 -41 -17 -1 -7 -2 -22 -3 -33 -1 -18
-8 -20 -66 -20 l-65 0 0 -35 0 -35 -74 0 -73 0 1 -32 c1 -36 18 -33 -171 -36
l-113 -2 0 -40 c0 -39 -1 -40 -35 -40 -33 0 -35 -2 -35 -35 0 -33 -2 -35 -35
-35 -33 0 -35 -2 -35 -35 l0 -35 -70 0 -70 0 0 -35 0 -35 -75 0 -75 0 0 -35
c0 -33 -2 -35 -35 -35 -33 0 -35 -2 -35 -35 0 -33 -2 -35 -35 -35 -33 0 -35
-2 -35 -35 0 -33 -2 -35 -35 -35 -33 0 -35 -2 -35 -35 0 -33 -2 -35 -35 -35
-34 0 -35 -1 -35 -40 l0 -40 -70 0 -70 0 0 -39 c0 -36 -3 -40 -36 -51 -39 -13
-31 -28 16 -31 23 -1 23 -2 -5 -9 -16 -4 -51 -8 -77 -9 -48 -1 -48 -1 -48 -36
0 -33 -2 -35 -35 -35 -33 0 -35 -2 -35 -35 0 -33 -2 -35 -35 -35 -33 0 -35 -2
-35 -35 0 -33 -2 -35 -35 -35 -33 0 -35 -2 -35 -35 0 -33 -2 -35 -35 -35 -33
0 -35 -2 -35 -35 0 -33 -2 -35 -35 -35 -34 0 -35 -1 -35 -40 0 -39 -1 -40 -35
-40 l-35 0 0 -70 0 -70 -35 0 c-33 0 -35 -2 -35 -35 0 -34 -1 -35 -40 -35 -39
0 -40 -1 -40 -35 0 -33 -2 -35 -35 -35 -33 0 -35 -2 -35 -35 0 -33 -2 -35 -35
-35 l-35 0 0 -70 0 -70 -35 0 c-34 0 -35 -1 -35 -40 0 -39 -1 -40 -34 -40
l-34 0 -6 -77 c-6 -105 -5 -103 -40 -104 -30 -2 -30 -2 -3 -6 34 -5 36 -22 2
-18 -23 2 -25 -1 -25 -36 0 -38 -1 -39 -35 -39 -34 0 -35 -1 -35 -41 0 -36 -3
-41 -19 -36 -15 4 -21 -1 -24 -22 l-4 -26 -2 28 c-1 31 -24 33 -29 2 -3 -10 0
-15 7 -11 6 4 11 3 11 -3 0 -5 -5 -13 -10 -16 -5 -3 -10 -42 -10 -86 l0 -79
-35 0 -34 0 -3 -67 -3 -68 -70 -10 c-38 -6 -63 -13 -55 -17 9 -4 10 -7 3 -7
-10 -1 -13 -26 -13 -91 l0 -90 -35 0 -35 0 0 -110 0 -110 -35 0 -35 0 -1 -77
c-1 -43 -2 -90 -2 -105 0 -17 -6 -28 -14 -28 -8 0 -12 4 -9 8 3 5 -1 9 -9 9
-8 0 -12 -4 -9 -9 3 -4 -2 -8 -10 -8 -13 0 -16 -13 -16 -70 l0 -70 -34 0 -34
0 -4 -99 c-1 -55 -5 -102 -8 -105 -3 -2 -19 -6 -35 -9 l-30 -4 -3 -141 -3
-142 -34 0 -35 0 0 -145 0 -145 -35 0 -35 0 0 -140 0 -140 -35 0 -35 0 0 -568
0 -568 33 1 32 0 3 -217 2 -218 35 0 34 0 3 -137 c2 -102 6 -138 16 -139 6 -1
21 -2 32 -3 19 -1 20 -8 20 -146 l0 -145 40 0 40 0 1 -152 c1 -84 0 -166 -1
-181 -1 -19 3 -28 12 -26 55 7 58 3 58 -76 0 -53 4 -75 13 -75 8 0 7 -4 -3
-10 -12 -8 -10 -10 10 -11 23 -1 24 -1 4 -7 -19 -6 -20 -9 -8 -20 11 -10 14
-10 14 0 0 9 3 9 10 -2 9 -13 10 -13 10 0 0 13 1 13 10 0 5 -8 10 -45 10 -82
l0 -67 33 -3 32 -3 3 -107 3 -108 34 0 35 0 1 -77 c1 -43 1 -90 0 -105 -1 -26
2 -28 34 -28 l35 0 0 -70 0 -70 35 0 35 0 1 -77 c1 -43 0 -93 -1 -111 -2 -33
-1 -34 34 -29 l36 5 0 -74 0 -74 40 0 c39 0 40 -1 40 -35 0 -32 2 -35 29 -35
17 0 32 -4 35 -8 3 -5 6 -52 7 -105 3 -92 12 -125 22 -74 l4 22 2 -22 c1 -16
7 -23 21 -23 17 0 20 -7 20 -40 0 -39 1 -40 35 -40 l35 0 0 -70 0 -70 35 0
c33 0 35 -2 35 -35 0 -33 2 -35 35 -35 33 0 35 -2 35 -35 0 -32 2 -35 30 -35
17 0 31 -4 31 -10 1 -5 3 -14 4 -20 1 -5 3 -32 4 -60 l1 -50 40 0 c39 0 40 -1
40 -35 0 -33 2 -35 35 -35 34 0 35 -1 35 -40 0 -39 1 -40 35 -40 l35 0 0 -70
0 -69 68 -3 67 -3 3 -68 3 -67 34 0 c33 0 35 -2 35 -35 0 -33 2 -35 35 -35 33
0 35 -2 35 -35 0 -33 2 -35 35 -35 33 0 35 -2 35 -35 0 -34 1 -35 40 -35 l40
0 0 -40 c0 -39 1 -40 35 -40 33 0 35 -2 35 -35 0 -33 2 -35 35 -35 33 0 35 -2
35 -35 l0 -35 70 0 70 0 0 -35 c0 -33 2 -35 35 -35 33 0 35 -2 35 -35 0 -33 2
-35 35 -35 33 0 35 -2 35 -35 0 -33 2 -35 35 -35 33 0 35 -2 35 -35 l0 -35 75
0 75 0 0 -35 c0 -33 2 -35 35 -35 34 0 35 -1 35 -40 0 -39 1 -40 35 -40 33 0
35 -2 35 -35 l0 -35 70 0 70 0 0 -35 0 -35 70 0 70 0 0 -35 c0 -34 2 -35 38
-36 80 -3 102 -6 108 -12 4 -4 2 -7 -4 -7 -18 0 -14 -37 4 -44 9 -3 29 -6 45
-6 27 0 29 -3 29 -35 l0 -35 105 0 105 0 0 -35 0 -35 70 0 70 0 0 -40 0 -40
78 -2 c42 -1 89 -2 105 -1 19 0 27 -5 28 -19 1 -10 2 -24 3 -30 1 -9 32 -14
109 -16 l107 -3 0 -34 0 -35 110 0 110 0 0 -35 0 -35 138 0 139 0 -2 -35 -3
-35 324 0 324 0 0 -35 0 -35 285 0 285 0 0 35 0 35 200 1 c110 1 206 2 213 3
17 1 22 47 5 57 -7 5 57 9 150 9 l162 0 -4 23 c-2 13 -1 28 2 33 8 11 7 11
157 13 l115 1 0 35 0 34 108 3 c86 2 106 6 104 17 -2 8 3 18 10 22 10 7 10 9
1 9 -7 0 -13 5 -13 10 0 6 43 10 110 10 l110 0 0 40 0 40 70 0 70 0 0 35 0 35
69 0 70 0 3 33 3 32 73 3 72 3 0 34 c0 24 5 35 15 35 8 0 15 -6 15 -12 0 -9 4
-8 10 2 6 10 10 11 10 3 0 -7 5 -13 11 -13 5 0 7 5 4 10 -4 6 10 10 34 10 40
0 41 1 41 35 l0 35 70 0 70 0 0 35 0 35 70 0 70 0 0 35 c0 33 2 35 35 35 34 0
35 1 35 40 l0 40 40 0 c39 0 40 1 40 35 l0 35 70 0 70 0 0 35 c0 33 2 35 35
35 33 0 35 2 35 35 0 33 2 35 35 35 33 0 35 2 35 35 l0 34 68 3 67 3 3 33 c3
30 6 32 43 32 38 0 39 1 39 35 0 33 2 35 35 35 33 0 35 2 35 35 0 33 2 35 35
35 34 0 35 1 35 40 0 39 1 40 35 40 33 0 35 2 35 35 l0 35 70 0 70 0 0 35 0
35 70 0 70 0 0 -249 0 -250 -32 -3 -33 -3 -3 -427 -2 -428 35 0 c33 0 35 -2
35 -35 l0 -35 680 0 680 0 0 35 c0 33 2 35 35 35 l35 0 0 2245 0 2245 -35 0
c-34 0 -35 1 -35 41 l0 41 -97 -3 c-54 -2 -103 -7 -110 -12 -6 -4 -10 -21 -8
-38 l4 -29 -499 0 -500 0 0 40 0 40 -115 0 c-95 0 -115 3 -116 15 -1 8 -2 21
-3 28 0 6 -11 13 -23 15 -17 2 -23 -3 -28 -27 -6 -27 -11 -31 -41 -31 -33 0
-34 -1 -34 -40 0 -39 -1 -40 -35 -40 l-35 0 0 -105 0 -105 -35 0 -35 0 0 -105
0 -105 -35 0 -35 0 0 -110 0 -110 -35 0 -35 0 0 -70 0 -70 -40 0 -40 0 -1 -72
c-1 -40 -4 -86 -8 -103 -5 -26 -10 -30 -34 -27 -26 3 -27 2 -29 -45 0 -26 0
-60 1 -75 2 -23 -2 -27 -31 -30 -32 -3 -33 -5 -36 -48 -4 -76 -10 -88 -40 -92
-26 -3 -27 -6 -32 -73 -4 -52 -9 -70 -20 -71 -8 -1 -23 -2 -32 -3 -14 -1 -18
-10 -18 -36 0 -33 -2 -35 -35 -35 l-35 0 0 -75 0 -75 -35 0 c-33 0 -35 -2 -35
-35 0 -34 -1 -35 -40 -35 l-40 0 0 -70 0 -70 -35 0 c-33 0 -35 -2 -35 -35 0
-33 -2 -35 -35 -35 -33 0 -35 -2 -35 -35 0 -33 -2 -35 -35 -35 l-35 0 0 -70 0
-70 -35 0 c-34 0 -35 -1 -35 -40 0 -39 -1 -40 -35 -40 -33 0 -35 -2 -35 -35 0
-33 -2 -35 -35 -35 -33 0 -35 -2 -35 -35 0 -33 -2 -35 -35 -35 -33 0 -35 -2
-35 -35 0 -34 -1 -35 -40 -35 -39 0 -40 -1 -40 -35 0 -33 -2 -35 -35 -35 -33
0 -35 -2 -35 -35 0 -33 -2 -35 -35 -35 -33 0 -35 -2 -35 -35 0 -33 -2 -35 -35
-35 -33 0 -35 -2 -35 -35 0 -33 -2 -35 -34 -35 -33 0 -35 -2 -38 -37 l-3 -38
-67 -3 -68 -3 0 -34 c0 -33 -2 -35 -35 -35 -33 0 -35 -2 -35 -35 l0 -34 -72
-3 -73 -3 -3 -32 c-3 -30 -6 -33 -38 -33 -32 0 -34 -2 -34 -35 l0 -35 -70 0
-70 0 0 -35 0 -35 -70 0 -70 0 0 -35 c0 -33 -2 -35 -35 -35 -33 0 -35 -2 -35
-35 l0 -35 -110 0 -110 0 0 -40 0 -40 -69 0 -70 0 -3 -32 -3 -33 -102 -3 -103
-3 0 -34 0 -35 -145 0 -145 0 0 -35 0 -35 -105 0 -105 0 0 -35 0 -35 -259 0
c-186 0 -262 3 -267 12 -4 7 -3 8 4 4 7 -4 12 -2 12 3 0 6 -4 11 -10 11 -5 0
-10 8 -10 18 0 13 2 14 9 4 7 -11 9 -10 14 3 6 13 1 15 -26 14 -17 -2 -51 -2
-74 -1 -42 2 -43 3 -43 37 l0 35 -70 0 -70 0 0 35 0 35 -50 1 c-27 1 -54 3
-60 4 -5 1 -14 3 -20 4 -5 0 -10 15 -10 31 0 28 -3 30 -35 30 -34 0 -35 1 -35
40 0 39 -1 40 -36 40 -19 0 -42 7 -50 15 -14 13 -13 15 3 15 14 0 15 2 4 9
-11 7 -11 9 0 13 8 3 -21 9 -63 13 l-78 7 0 34 0 33 -67 3 -68 3 -3 33 c-3 29
-6 32 -38 32 -32 0 -34 2 -34 35 0 33 -2 35 -35 35 -33 0 -35 2 -35 35 0 33
-2 35 -32 34 -18 0 -27 -3 -20 -6 6 -2 12 -9 12 -15 0 -6 -8 -4 -18 5 -10 10
-33 17 -50 17 -30 0 -32 2 -32 35 l0 35 -75 0 -75 0 0 35 c0 33 -2 35 -35 35
-34 0 -35 1 -35 40 0 39 -1 40 -35 40 -33 0 -35 2 -35 35 0 33 -2 35 -35 35
-33 0 -35 2 -35 35 0 38 5 36 -97 38 -12 1 -20 4 -17 8 2 4 -3 9 -11 13 -8 3
-15 15 -15 26 0 16 -6 20 -35 20 -33 0 -35 2 -36 33 -1 17 -3 48 -3 67 -2 38
6 35 -106 39 -39 1 -40 2 -40 36 0 33 -2 35 -35 35 -33 0 -35 2 -35 35 0 33
-2 35 -35 35 -34 0 -35 1 -35 40 0 39 -1 40 -35 40 -33 0 -35 2 -35 35 0 33
-2 35 -35 35 -33 0 -35 2 -35 35 0 33 -2 35 -35 35 -33 0 -35 2 -35 35 0 33
-2 35 -35 35 -33 0 -35 2 -35 35 0 33 -2 35 -35 35 -33 0 -35 2 -35 35 0 34
-1 35 -40 35 -40 0 -40 0 -40 38 0 35 -2 38 -32 40 -40 3 -51 12 -15 12 22 0
27 5 26 23 -1 16 -2 18 -6 5 -2 -10 -14 -18 -25 -18 -14 0 -18 5 -14 15 3 9
-3 19 -17 27 -12 6 -23 11 -24 10 -13 -9 -29 2 -29 21 -1 116 -1 117 -39 117
-33 0 -35 2 -35 35 0 33 -2 35 -35 35 -33 0 -35 2 -35 35 0 33 -2 35 -35 35
l-35 0 0 70 0 70 -35 0 c-33 0 -35 2 -35 35 0 33 -2 35 -35 35 -33 0 -35 2
-35 35 0 30 -3 35 -24 35 -51 0 -56 8 -56 81 l0 69 -35 0 -35 0 0 70 0 70 -35
0 -35 0 0 105 0 105 -34 0 c-33 0 -35 2 -38 38 -2 31 -7 37 -26 38 -32 2 -34
5 -40 81 -2 37 -10 71 -16 75 -7 5 -7 8 0 8 5 0 10 12 10 26 0 23 -3 25 -33
19 l-33 -6 0 111 0 110 -35 0 -34 0 -3 113 -3 112 -32 -3 -33 -4 0 176 0 176
-40 0 -40 0 0 685 c0 450 3 685 10 685 6 0 10 11 10 25 0 14 4 25 8 25 5 0 7
-13 4 -30 -2 -16 0 -30 5 -30 5 0 10 14 11 32 4 46 12 48 13 2 l2 -39 7 45 c4
25 8 117 9 205 1 88 5 163 10 168 4 4 6 -7 3 -25 -4 -27 -2 -31 9 -20 7 6 21
12 30 12 15 0 17 14 18 113 1 61 4 133 7 159 6 42 10 48 35 53 l29 7 0 104 0
104 35 0 35 0 0 110 c0 118 0 118 58 111 8 -1 12 18 12 69 l0 70 35 0 35 0 0
70 0 70 35 0 35 0 0 75 0 75 35 0 c33 0 35 2 35 35 0 34 1 35 40 35 l40 0 0
70 0 70 35 0 35 0 0 70 0 70 35 0 c33 0 35 2 35 35 0 33 2 35 35 35 l35 0 2
58 c0 31 2 63 2 71 1 13 37 21 103 23 l32 0 3 67 c3 60 5 66 26 67 12 1 27 2
32 3 6 0 10 17 10 36 0 33 2 35 35 35 33 0 35 2 35 35 0 34 1 35 40 35 39 0
40 1 40 35 0 36 7 40 53 36 9 -1 17 4 17 13 0 9 -6 16 -12 16 -9 0 -8 4 2 10
13 9 13 10 0 10 -31 1 14 20 48 20 30 0 32 2 32 35 0 33 2 35 35 35 19 0 35 4
35 10 0 6 9 6 26 0 38 -15 41 -13 40 28 -1 36 0 37 37 40 35 3 37 5 37 38 0
32 2 34 35 34 33 0 35 2 35 35 l0 35 75 0 75 0 0 35 c0 33 2 35 35 35 33 0 35
2 35 35 0 33 2 35 35 35 21 0 35 5 36 13 1 6 2 17 4 22 1 6 3 16 3 23 2 8 22
12 67 12 l65 0 0 35 0 35 70 0 70 0 0 33 c0 20 5 34 13 34 6 1 56 2 110 3 65
2 97 6 96 14 -1 6 -1 23 0 39 1 27 2 27 71 27 l70 0 0 35 0 35 69 0 c72 0 81
6 81 51 0 18 9 19 148 20 81 1 159 0 175 -1 25 -1 27 1 27 34 l0 36 675 0 675
0 0 -35 0 -35 110 0 c117 0 116 1 111 -52 -2 -14 5 -17 31 -16 18 1 97 1 176
0 l142 -2 0 -35 0 -34 77 -3 78 -3 -3 -37 -4 -38 91 -1 c130 -2 116 4 120 -49
1 -18 8 -20 71 -20 l70 0 0 -35 c0 -34 1 -35 41 -35 39 0 40 -1 35 -30 -3 -25
-1 -30 15 -30 14 0 19 8 20 28 2 27 2 27 6 2 6 -32 19 -40 66 -40 36 0 37 -1
37 -35 l0 -35 55 0 c30 0 58 0 61 1 11 1 24 -25 24 -48 0 -21 5 -23 48 -23 29
0 42 -3 34 -9 -8 -4 -12 -19 -10 -32 2 -19 9 -24 33 -25 107 -2 105 -1 105
-39 0 -33 2 -35 35 -35 34 0 35 -1 35 -40 l0 -39 73 -3 72 -3 3 -32 c3 -30 6
-33 38 -33 32 0 34 -2 34 -35 0 -33 2 -35 35 -35 33 0 35 -2 35 -35 0 -33 2
-35 35 -35 33 0 35 -2 35 -35 0 -34 1 -35 39 -35 l40 0 -6 -36 c-6 -36 -6 -36
28 -32 33 3 34 2 37 -34 3 -36 5 -38 38 -38 32 0 34 -2 34 -35 0 -33 2 -35 35
-35 34 0 35 -1 35 -40 l0 -40 40 0 c39 0 40 -1 40 -35 0 -33 2 -35 35 -35 33
0 35 -2 35 -35 0 -33 2 -35 35 -35 35 0 35 0 35 -45 0 -32 4 -45 14 -45 8 0
17 6 19 13 3 7 6 5 6 -5 1 -12 -6 -18 -21 -18 -17 0 -19 -3 -9 -9 11 -7 11 -9
0 -14 -8 -3 0 -6 16 -6 23 -1 26 2 15 9 -12 8 -11 10 7 10 15 0 21 -5 17 -14
-4 -11 4 -16 33 -18 l38 -3 3 -67 3 -67 37 -3 c35 -3 37 -5 36 -35 -1 -31 1
-33 33 -33 33 0 34 1 31 33 l-3 32 113 3 c108 3 112 3 112 25 0 31 14 49 36
47 11 -1 38 -2 62 -1 41 1 42 2 42 36 0 33 2 35 35 35 33 0 35 2 35 35 l0 35
210 0 c133 0 210 4 211 10 1 6 2 20 3 33 1 22 4 22 144 25 l142 3 0 109 0 110
-35 0 c-33 0 -35 2 -35 35 0 33 -2 35 -35 35 l-35 0 0 64 c0 57 -2 65 -21 71
-13 4 -25 2 -29 -5 -12 -19 -20 15 -20 86 l0 64 -35 0 c-33 0 -35 2 -35 35 0
34 -1 35 -38 35 -38 0 -38 0 -34 35 4 34 3 35 -32 35 l-36 0 -1 48 c-1 26 0
60 1 75 2 28 0 29 -34 24 -36 -5 -36 -5 -36 34 0 39 0 39 -40 39 -39 0 -40 1
-40 34 0 32 -3 35 -32 38 -26 2 -33 8 -34 26 -1 12 -2 27 -3 32 0 6 -17 10
-36 10 -33 0 -35 2 -35 35 0 33 -2 35 -35 35 l-35 0 0 70 0 70 -39 0 c-22 0
-43 5 -47 12 -4 7 -3 8 4 4 8 -5 12 0 12 13 0 17 -7 21 -37 22 l-38 2 40 7 40
7 -37 2 c-37 1 -38 2 -38 41 0 39 -1 40 -35 40 -33 0 -35 2 -35 35 0 33 -2 35
-35 35 -33 0 -35 2 -35 35 0 34 -1 35 -40 35 -39 0 -40 1 -40 36 0 31 -3 35
-22 34 -13 -1 -44 -2 -70 -1 -48 1 -48 1 -48 36 0 33 -2 35 -35 35 -33 0 -35
2 -35 35 0 33 -2 35 -35 35 -33 0 -35 2 -35 35 0 33 -2 35 -35 35 -34 0 -35 1
-35 40 0 39 -1 40 -35 40 -33 0 -35 2 -35 35 l0 34 -72 3 -73 3 -3 33 c-2 17
-7 32 -11 32 -4 0 -6 13 -3 29 4 29 4 29 -62 36 l-66 7 0 34 c0 32 -2 34 -35
34 -33 0 -35 2 -35 35 l0 35 -70 0 -70 0 0 35 c0 33 -2 35 -35 35 -33 0 -35 2
-35 35 l0 35 -75 0 -75 0 0 40 0 40 -70 0 -70 0 0 35 0 35 -70 0 -70 0 0 35 0
35 -70 0 -70 0 0 35 0 35 -75 0 -75 0 0 35 0 35 -105 0 -105 0 0 35 0 34 -102
3 -103 3 -3 33 -3 32 -74 0 -74 0 -3 33 -3 32 -195 3 c-107 1 -201 5 -208 7
-9 3 -12 16 -8 40 l6 36 -688 -1 -687 -1 3 -40z m102 21 c0 -5 -5 -10 -11 -10
-5 0 -7 5 -4 10 3 6 8 10 11 10 2 0 4 -4 4 -10z m3353 -937 c-13 -2 -23 -9
-23 -14 0 -6 4 -8 9 -4 5 3 13 0 16 -6 5 -7 0 -10 -11 -7 -10 2 -20 11 -22 21
-3 13 3 17 25 16 23 -1 24 -2 6 -6z m-5950 -370 c-7 -2 -21 -2 -30 0 -10 3 -4
5 12 5 17 0 24 -2 18 -5z m3984 -259 c-3 -3 -12 -4 -19 -1 -8 3 -5 6 6 6 11 1
17 -2 13 -5z m-5350 -1546 c-3 -8 -6 -5 -6 6 -1 11 2 17 5 13 3 -3 4 -12 1
-19z m8403 -3618 c0 -5 -10 -10 -22 -10 -19 0 -20 2 -8 10 19 13 30 13 30 0z
m-4793 -3326 c-3 -3 -12 -4 -19 -1 -8 3 -5 6 6 6 11 1 17 -2 13 -5z"/>
<path d="M6860 13285 c0 -8 4 -15 10 -15 5 0 7 7 4 15 -4 8 -8 15 -10 15 -2 0
-4 -7 -4 -15z"/>
<path d="M3811 12384 c0 -11 3 -14 6 -6 3 7 2 16 -1 19 -3 4 -6 -2 -5 -13z"/>
<path d="M3238 11243 c7 -3 16 -2 19 1 4 3 -2 6 -13 5 -11 0 -14 -3 -6 -6z"/>
<path d="M3238 11223 c7 -3 16 -2 19 1 4 3 -2 6 -13 5 -11 0 -14 -3 -6 -6z"/>
<path d="M12298 10983 l-108 -4 0 -39 0 -40 -70 0 -70 0 0 -35 0 -35 -75 0
-75 0 0 -35 c0 -33 -2 -35 -35 -35 -33 0 -35 -2 -35 -35 0 -33 -2 -35 -35 -35
-33 0 -35 -2 -35 -35 0 -33 -2 -35 -35 -35 -33 0 -35 -2 -35 -35 0 -33 -2 -35
-35 -35 l-35 0 0 -70 0 -70 -35 0 -35 0 0 -84 c0 -53 -4 -87 -12 -92 -6 -4 -8
-3 -5 3 4 6 0 14 -9 17 -12 5 -15 2 -10 -10 5 -13 2 -15 -14 -11 -20 5 -20 1
-20 -313 l0 -317 28 3 c16 2 19 1 7 -2 -38 -11 -40 -24 -4 -25 l34 -1 -30 -8
-30 -8 33 -1 32 -1 2 -82 c0 -46 2 -87 3 -93 2 -5 3 -17 4 -27 1 -22 41 -12
42 11 0 12 2 11 9 -4 5 -11 9 -55 9 -97 l1 -78 35 0 c33 0 35 -2 35 -35 0 -33
2 -35 35 -35 33 0 35 -2 35 -35 0 -33 2 -35 35 -35 33 0 35 -2 35 -35 0 -33 2
-35 35 -35 33 0 35 -2 35 -35 0 -33 2 -35 35 -35 33 0 35 -2 35 -35 l0 -35 75
0 75 0 0 -35 0 -35 70 0 70 0 0 -35 0 -35 355 0 355 0 0 35 0 35 70 0 70 0 0
35 c0 34 1 35 40 35 39 0 40 1 40 35 0 33 2 35 34 35 32 0 35 3 38 33 3 31 4
32 61 38 32 4 60 9 64 12 6 7 10 33 12 90 1 35 2 37 36 37 34 0 38 4 38 42 0
12 10 20 33 24 32 6 34 9 34 45 0 38 1 39 35 39 l34 0 3 72 3 72 30 2 c38 2
36 0 25 29 -6 16 -6 25 0 25 6 0 10 145 10 395 l0 395 -35 0 -35 0 0 75 0 75
-35 0 -35 0 0 55 c0 30 0 58 1 61 2 13 -26 24 -61 24 -19 0 -30 4 -25 8 6 4
10 13 9 20 -1 6 -2 16 -3 21 0 5 -13 11 -28 13 -24 3 -28 8 -31 41 -3 35 -5
37 -38 37 -32 0 -34 2 -34 35 0 33 -2 35 -35 35 -33 0 -35 2 -35 35 l0 35 -75
0 -75 0 0 35 0 35 -80 1 c-44 1 -84 3 -90 4 -5 1 -14 3 -20 4 -5 0 -10 15 -10
31 0 17 -6 32 -12 35 -19 5 -475 11 -600 8z m-761 -779 c-3 -3 -12 -4 -19 -1
-8 3 -5 6 6 6 11 1 17 -2 13 -5z m48 -814 c3 -5 1 -10 -4 -10 -6 0 -11 5 -11
10 0 6 2 10 4 10 3 0 8 -4 11 -10z"/>
<path d="M3072 10875 c0 -16 2 -22 5 -12 2 9 2 23 0 30 -3 6 -5 -1 -5 -18z"/>
<path d="M3090 10862 c0 -5 7 -9 15 -9 8 0 15 4 15 9 0 4 -7 8 -15 8 -8 0 -15
-4 -15 -8z"/>
<path d="M4302 10580 c0 -14 2 -19 5 -12 2 6 2 18 0 25 -3 6 -5 1 -5 -13z"/>
<path d="M4240 10270 c0 -5 9 -10 21 -10 11 0 17 5 14 10 -3 6 -13 10 -21 10
-8 0 -14 -4 -14 -10z"/>
<path d="M13498 9163 c7 -3 16 -2 19 1 4 3 -2 6 -13 5 -11 0 -14 -3 -6 -6z"/>
<path d="M4430 7611 c0 -6 4 -13 10 -16 6 -3 7 1 4 9 -7 18 -14 21 -14 7z"/>
<path d="M6088 5543 c7 -3 16 -2 19 1 4 3 -2 6 -13 5 -11 0 -14 -3 -6 -6z"/>
<path d="M5952 3880 c0 -14 2 -19 5 -12 2 6 2 18 0 25 -3 6 -5 1 -5 -13z"/>
</g>
</svg>
